<svg xmlns="http://www.w3.org/2000/svg" width="552" height="248" viewBox="-26 -26 552 248" style="max-width:100%;height:auto"><style>text{font-family:'PT Sans','Segoe UI',Verdana,sans-serif}.mono{font-family:Menlo,Consolas,'Courier New',monospace}</style><rect x="-26" y="-26" width="552" height="248" rx="16" fill="#0E1524"/>
        <g font-family="Menlo" font-size="11" text-anchor="middle">
          <rect x="200" y="10" width="90" height="24" rx="6" fill="#10263A" stroke="#4FC3F7"/><text x="245" y="26" fill="#E8EDF7">a &lt; b ?</text>
          <rect x="90" y="64" width="90" height="24" rx="6" fill="#10263A" stroke="#4FC3F7"/><text x="135" y="80" fill="#E8EDF7">b &lt; c ?</text>
          <rect x="310" y="64" width="90" height="24" rx="6" fill="#10263A" stroke="#4FC3F7"/><text x="355" y="80" fill="#E8EDF7">a &lt; c ?</text>
          <line x1="222" y1="34" x2="150" y2="62" stroke="#3DDC84" stroke-width="1.4"/>
          <line x1="268" y1="34" x2="340" y2="62" stroke="#FF6B6B" stroke-width="1.4"/>
          <rect x="18" y="126" width="66" height="22" rx="5" fill="#14301F" stroke="#3DDC84"/><text x="51" y="141" fill="#3DDC84" font-size="10">abc</text>
          <rect x="96" y="126" width="90" height="22" rx="5" fill="#10263A" stroke="#31405F"/><text x="141" y="141" fill="#8FA0C0" font-size="10">a &lt; c ?</text>
          <rect x="222" y="126" width="66" height="22" rx="5" fill="#14301F" stroke="#3DDC84"/><text x="255" y="141" fill="#3DDC84" font-size="10">bac</text>
          <rect x="306" y="126" width="90" height="22" rx="5" fill="#10263A" stroke="#31405F"/><text x="351" y="141" fill="#8FA0C0" font-size="10">b &lt; c ?</text>
          <line x1="115" y1="88" x2="55" y2="124" stroke="#3DDC84" stroke-width="1.2"/>
          <line x1="155" y1="88" x2="140" y2="124" stroke="#FF6B6B" stroke-width="1.2"/>
          <line x1="335" y1="88" x2="258" y2="124" stroke="#3DDC84" stroke-width="1.2"/>
          <line x1="375" y1="88" x2="350" y2="124" stroke="#FF6B6B" stroke-width="1.2"/>
          <text x="120" y="176" fill="#8FA0C0" font-family="PT Sans" font-size="12">…и ещё уровень: всего 6 листьев-перестановок</text>
          <text x="385" y="176" fill="#FEBC2E" font-family="PT Sans" font-size="12">глубина ≥ ⌈log₂ 6⌉ = 3</text>
        </g>
      </svg>