<svg xmlns="http://www.w3.org/2000/svg" width="552" height="262" viewBox="-26 -26 552 262" style="max-width:100%;height:auto"><style>text{font-family:'PT Sans','Segoe UI',Verdana,sans-serif}.mono{font-family:Menlo,Consolas,'Courier New',monospace}</style><rect x="-26" y="-26" width="552" height="262" rx="16" fill="#0E1524"/>
        <g font-family="Menlo" font-size="12" text-anchor="middle">
          <circle cx="250" cy="34" r="17" fill="#1E3A54" stroke="#4FC3F7" stroke-width="1.5"/><text x="250" y="39" fill="#E8EDF7">1</text>
          <circle cx="150" cy="88" r="17" fill="#10263A" stroke="#4FC3F7"/><text x="150" y="93" fill="#E8EDF7">3</text>
          <circle cx="350" cy="88" r="17" fill="#10263A" stroke="#4FC3F7"/><text x="350" y="93" fill="#E8EDF7">2</text>
          <circle cx="100" cy="142" r="17" fill="#10263A" stroke="#31405F"/><text x="100" y="147" fill="#8FA0C0">5</text>
          <circle cx="200" cy="142" r="17" fill="#10263A" stroke="#31405F"/><text x="200" y="147" fill="#8FA0C0">9</text>
          <circle cx="300" cy="142" r="17" fill="#10263A" stroke="#31405F"/><text x="300" y="147" fill="#8FA0C0">8</text>
          <line x1="238" y1="46" x2="162" y2="77" stroke="#31405F" stroke-width="1.4"/>
          <line x1="262" y1="46" x2="338" y2="77" stroke="#31405F" stroke-width="1.4"/>
          <line x1="138" y1="99" x2="111" y2="130" stroke="#31405F" stroke-width="1.4"/>
          <line x1="162" y1="99" x2="189" y2="130" stroke="#31405F" stroke-width="1.4"/>
          <line x1="338" y1="99" x2="311" y2="130" stroke="#31405F" stroke-width="1.4"/>
          <rect x="115" y="176" width="45" height="26" fill="#1E3A54" stroke="#4FC3F7"/><text x="137" y="193" fill="#E8EDF7">1</text>
          <rect x="160" y="176" width="45" height="26" fill="#10263A" stroke="#4FC3F7"/><text x="182" y="193" fill="#E8EDF7">3</text>
          <rect x="205" y="176" width="45" height="26" fill="#10263A" stroke="#4FC3F7"/><text x="227" y="193" fill="#E8EDF7">2</text>
          <rect x="250" y="176" width="45" height="26" fill="#10263A" stroke="#31405F"/><text x="272" y="193" fill="#8FA0C0">5</text>
          <rect x="295" y="176" width="45" height="26" fill="#10263A" stroke="#31405F"/><text x="317" y="193" fill="#8FA0C0">9</text>
          <rect x="340" y="176" width="45" height="26" fill="#10263A" stroke="#31405F"/><text x="362" y="193" fill="#8FA0C0">8</text>
          <text x="95" y="193" fill="#8FA0C0" font-family="PT Sans" font-size="11" text-anchor="end">a[i]:</text>
        </g>
      </svg>